<svg xmlns="http://www.w3.org/2000/svg" width="60.38" height="37" viewBox="0 0 60.38 37">
  <g id="Group_664" data-name="Group 664" transform="translate(-37.149 -29.242)">
    
    <g id="Group_661" data-name="Group 661" transform="translate(37.149 29.634)">
      <path id="Path_247" data-name="Path 247" d="M70.921,43.152a17.2,17.2,0,0,1,3.08.277l2.343-2.443a16.628,16.628,0,0,0-5.423-.885,15.365,15.365,0,0,0-8.535,2.423l2.042,1.935A16.23,16.23,0,0,1,70.921,43.152Z" transform="translate(-41.877 -31.668)" fill="#858688"/>
      <path id="Path_248" data-name="Path 248" d="M70.3,39.355a16.628,16.628,0,0,1,5.423.885l2.549-2.653A21.794,21.794,0,0,0,70.3,36.118,20.661,20.661,0,0,0,59.1,39.245l2.673,2.532A15.365,15.365,0,0,1,70.3,39.355Z" transform="translate(-41.26 -30.922)" fill="#fff"/>
      <path id="Path_249" data-name="Path 249" d="M57.789,52.063a7.265,7.265,0,0,1,1.156-2.474l-1.026-1.038a6.532,6.532,0,0,0-.316,1.987A6.362,6.362,0,0,0,57.789,52.063Z" transform="translate(-40.98 -33.251)" fill="#858688"/>
      <path id="Path_250" data-name="Path 250" d="M48.4,59.585l-.432,2.233,4.288-1.846a10.887,10.887,0,0,1-.48-1.914Z" transform="translate(-39.176 -35.032)" fill="#858688"/>
      <path id="Path_251" data-name="Path 251" d="M43.355,29.979,37.149,63.963l2.935.239,6.145-34.478Z" transform="translate(-37.149 -29.724)" fill="#858688"/>
      <path id="Path_252" data-name="Path 252" d="M64.9,49.535V46.788L60.39,42.515,58.348,40.58l-2.673-2.532-8.783-8.323L40.746,64.2l13.006-5.718a11.563,11.563,0,0,1-2.894-3.8L46.624,56.5l.424-2.223,2.744-14.3.229-1.2,2.266,2.28L55.2,43.994l1.251,1.261L61.6,49.686,56.6,51.976a11.786,11.786,0,0,0,4.9,3.082l6.231-2.8Z" transform="translate(-37.823 -29.724)" fill="#ed1c24"/>
      <path id="Path_253" data-name="Path 253" d="M89.632,42.116A10.556,10.556,0,0,1,93,49.628a9.394,9.394,0,0,1-.128,1.525A9.437,9.437,0,0,1,93,52.681a10.031,10.031,0,0,1-2.028,5.953l8.47-8.821-8.952-8.6Z" transform="translate(-46.981 -31.877)" fill="none"/>
      <path id="Path_254" data-name="Path 254" d="M83.69,47.669l-3.5,3.65,4.271,4.1A7.68,7.68,0,0,0,86.489,51.9,8.078,8.078,0,0,0,83.69,47.669Z" transform="translate(-45.211 -33.086)" fill="none"/>
      <path id="Path_255" data-name="Path 255" d="M87.292,51.543a6.4,6.4,0,0,0,.188-1.525,6.954,6.954,0,0,0-1.527-4.243l-1.479,1.533A8.118,8.118,0,0,1,87.292,51.543Z" transform="translate(-46.014 -32.731)" fill="#858688"/>
      <path id="Path_256" data-name="Path 256" d="M90.145,66.857l-3.507-3.369a17.4,17.4,0,0,1-1.787,1.065l5.294,5.082,16.323-17-.018-2.754Z" transform="translate(-46.085 -33.5)" fill="#858688"/>
      <path id="Path_257" data-name="Path 257" d="M75.551,55.594l-2.888-2.773-2.209-2.111-.008,2.756,3.107,2.984L76.522,59.3a15.041,15.041,0,0,0,2.155-.707Z" transform="translate(-43.386 -33.656)" fill="#858688"/>
      <path id="Path_258" data-name="Path 258" d="M88.4,37.8l-2.324,2.419L83.514,42.89l-1.748,1.819-3.311,3.448,1.387,1.332,3.523-3.669,1.473-1.534,2.7-2.81.863-.9,8.976,8.6,1.389-1.441Z" transform="translate(-44.887 -31.237)" fill="#858688"/>
      <path id="Path_259" data-name="Path 259" d="M82.581,42.323l-2.7,2.81A6.923,6.923,0,0,1,81.4,49.371a6.4,6.4,0,0,1-.188,1.525,7.68,7.68,0,0,1-2.032,3.524,11.869,11.869,0,0,1-3.955,2.6,15.041,15.041,0,0,1-2.155.707,17.008,17.008,0,0,1-4.091.494,16.723,16.723,0,0,1-4.965-.737,12.55,12.55,0,0,1-5.147-2.978,8.7,8.7,0,0,1-1.221-1.516,7.124,7.124,0,0,1-.9-2.1,6.362,6.362,0,0,1-.187-1.525,6.532,6.532,0,0,1,.316-1.987l-3.1-3.137a9.925,9.925,0,0,0-1.776,5.588,9.485,9.485,0,0,0,.129,1.525,10.047,10.047,0,0,0,1.268,3.455,11.725,11.725,0,0,0,1.1,1.568,14.936,14.936,0,0,0,4.145,3.407,21,21,0,0,0,10.338,2.6,21.912,21.912,0,0,0,7.574-1.317,19.109,19.109,0,0,0,1.991-.866A16.134,16.134,0,0,0,82.4,57.517a11.047,11.047,0,0,0,3.424-6.156,9.393,9.393,0,0,0,.128-1.525A10.556,10.556,0,0,0,82.581,42.323Z" transform="translate(-39.929 -32.084)" fill="#fff"/>
      <path id="Path_260" data-name="Path 260" d="M75.538,51.7l3.116,2.992a11.969,11.969,0,0,0,3.966-2.595l-4.271-4.1L76.961,46.66l3.294-3.429L82,41.411l2.564-2.672,2.325-2.419,10.34,9.928-1.388,1.445-8.47,8.822a13.933,13.933,0,0,1-3.418,3.243l3.481,3.359,16.324-17-17-16.323-6.367,6.631-2.548,2.654L75.5,41.519l-5.039,5.273Z" transform="translate(-43.388 -29.737)" fill="#0055a5"/>
      <path id="Path_261" data-name="Path 261" d="M73.157,53.333" transform="translate(-43.894 -34.147)" fill="#0055a5"/>
      <g id="Group_660" data-name="Group 660" transform="translate(11.879 9.049)">
        <path id="Path_262" data-name="Path 262" d="M57.669,52.8l.091.15a8.736,8.736,0,0,0,.916,1.121l5.078-2.347L52.084,40.859l-.318,1.681,9.156,9.065Z" transform="translate(-51.766 -40.859)" fill="#858688"/>
      </g>
      <path id="Path_263" data-name="Path 263" d="M85.947,51.449a9.394,9.394,0,0,1-.128,1.525A11.047,11.047,0,0,1,82.4,59.131a16.134,16.134,0,0,1-3.863,2.692,19.108,19.108,0,0,1-1.991.866A21.912,21.912,0,0,1,68.967,64a21,21,0,0,1-10.338-2.6A14.936,14.936,0,0,1,54.485,58a11.725,11.725,0,0,1-1.1-1.568,10.047,10.047,0,0,1-1.268-3.455,9.485,9.485,0,0,1-.129-1.525c0-.163.012-.323.02-.483,0-.009,0-.021-.006-.028-.083.5-.015,3.047-.015,3.564a9.413,9.413,0,0,0,.312,2.393,9.941,9.941,0,0,0,.644,1.763,12.258,12.258,0,0,0,3,3.9,19.8,19.8,0,0,0,13.025,4.5,21.236,21.236,0,0,0,9.75-2.278A17.332,17.332,0,0,0,80.5,63.713a14,14,0,0,0,3.42-3.259A10.031,10.031,0,0,0,85.947,54.5c0-.454.04-2.609,0-3.464C85.935,50.92,85.947,51.3,85.947,51.449Z" transform="translate(-39.923 -33.698)" fill="#858688"/>
    </g>
    
    
  </g>
</svg>